<svg xmlns="http://www.w3.org/2000/svg" viewBox="105 105 222 220" width="432" height="432">
  <g id="background_elements">
    <path
        d="M322.13,215.5C322.13,272.66 274.64,319 216.07,319C157.49,319 110,272.66 110,215.5C110,158.34 157.49,112 216.07,112C274.64,112 322.13,158.34 322.13,215.5Z"
        fill="#F2FAFF"/>
    <path
        d="M216.07,299.59C263.66,299.59 302.24,261.94 302.24,215.5C302.24,169.06 263.66,131.41 216.07,131.41C168.47,131.41 129.89,169.06 129.89,215.5C129.89,261.94 168.47,299.59 216.07,299.59ZM216.07,319C274.64,319 322.13,272.66 322.13,215.5C322.13,158.34 274.64,112 216.07,112C157.49,112 110,158.34 110,215.5C110,272.66 157.49,319 216.07,319Z"
        fill="#0058A0"
        fill-rule="evenodd"/>
    <path
        d="M164,155h104c4.4,0 8,3.6 8,8v36c0,4.4 -3.6,8 -8,8h-104c-4.4,0 -8,-3.6 -8,-8v-36c0,-4.4 3.6,-8 8,-8z"
        stroke="#54759E"
        stroke-width="5"
        fill="none"/>
    <path
        d="M164,223h104c4.4,0 8,3.6 8,8v36c0,4.4 -3.6,8 -8,8h-104c-4.4,0 -8,-3.6 -8,-8v-36c0,-4.4 3.6,-8 8,-8z"
        stroke="#54759E"
        stroke-width="5"
        fill="none"/>
  </g>
  <g id="foreground_content">
    <path
        d="M182.03,188.7L181.33,172.69C183.42,173.09 185.91,173.19 191.57,173.19C198.44,173.19 207.49,172.79 212.16,172.19C214.15,171.99 214.95,171.7 216.24,171L226.98,180.15C225.98,181.54 225.68,182.14 224.59,184.92C223.7,187.11 219.62,199.74 218.03,205.11C225.39,206.6 229.46,207.7 235.03,209.98C235.73,205.11 235.83,202.52 235.83,193.67C235.83,191.39 235.73,190.09 235.43,188.01L252.74,188.6C252.24,190.99 252.14,191.98 252.04,195.86C251.64,205.21 251.24,209.68 250.25,216.45C257.11,219.93 257.11,219.93 260.59,221.82C262.38,222.81 262.78,223.01 263.97,223.41L258.2,242.01C255.42,239.52 251.54,236.83 245.87,233.65C240.9,245.49 232.65,254.14 220.12,261C215.94,255.43 212.76,252.05 207.68,248.07C215.04,244.59 218.43,242.4 222.3,238.72C226.08,235.04 228.57,231.46 230.96,226.09C224.59,223.21 220.51,221.92 213.45,220.43C209.38,232.56 206.09,240.32 203.21,244.99C199.33,251.25 194.06,254.54 187.99,254.54C183.32,254.54 178.55,252.45 175.07,248.87C171.09,244.79 169,239.12 169,232.56C169,222.81 173.67,214.36 181.83,209.09C187.1,205.71 192.67,204.21 201.52,203.72C203.31,197.85 204.8,192.78 206.19,187.11C201.82,187.51 196.35,187.81 189.68,188.1C186.1,188.2 184.91,188.3 182.03,188.7ZM197.14,218.93C192.47,219.73 189.68,221.22 187.2,224.4C185.31,226.59 184.41,229.18 184.41,231.96C184.41,235.04 185.91,237.33 187.8,237.33C190.08,237.33 192.67,232.16 197.14,218.93Z"
        fill="#031019"/>
  </g>
</svg>