<!--
  Material Symbols Rounded 'storage', v399.
  Copyright (C) Google LLC
  SPDX-License-Identifier: Apache-2.0
-->
<svg xmlns="http://www.w3.org/2000/svg" height="24" viewBox="0 -960 960 960" width="24"><path d="M200-160q-33 0-56.5-23.5T120-240q0-33 23.5-56.5T200-320h560q33 0 56.5 23.5T840-240q0 33-23.5 56.5T760-160H200Zm0-480q-33 0-56.5-23.5T120-720q0-33 23.5-56.5T200-800h560q33 0 56.5 23.5T840-720q0 33-23.5 56.5T760-640H200Zm0 240q-33 0-56.5-23.5T120-480q0-33 23.5-56.5T200-560h560q33 0 56.5 23.5T840-480q0 33-23.5 56.5T760-400H200Zm68.5-291.5Q280-703 280-720t-11.5-28.5Q257-760 240-760t-28.5 11.5Q200-737 200-720t11.5 28.5Q223-680 240-680t28.5-11.5Zm0 240Q280-463 280-480t-11.5-28.5Q257-520 240-520t-28.5 11.5Q200-497 200-480t11.5 28.5Q223-440 240-440t28.5-11.5Zm0 240Q280-223 280-240t-11.5-28.5Q257-280 240-280t-28.5 11.5Q200-257 200-240t11.5 28.5Q223-200 240-200t28.5-11.5Z"/></svg>
