<svg xmlns="http://www.w3.org/2000/svg" width="512" height="512" fill="none" viewBox="0 0 432 432">
  <circle cx="216" cy="216" r="216" fill="#2e3943"/>
  <path fill="#f2faff" d="M398.073 216c0 97.433-81.517 176.419-182.073 176.419-100.556 0-182.073-78.986-182.073-176.419S115.444 39.581 216 39.581c100.556 0 182.073 78.986 182.073 176.419Z"/>
  <path fill="#7ebbed" fill-rule="evenodd" d="M216 359.34c81.702 0 147.934-64.175 147.934-143.34S297.702 72.66 216 72.66 68.065 136.835 68.065 216 134.298 359.34 216 359.34zm0 33.079c100.556 0 182.073-78.986 182.073-176.419S316.556 39.581 216 39.581C115.444 39.581 33.927 118.567 33.927 216S115.444 392.419 216 392.419z" clip-rule="evenodd"/>
  <path fill="#031019" d="m155.273 168.033-1.227-28.215c3.68.7 8.063.875 18.052.875 12.092 0 28.041-.7 36.279-1.752 3.504-.35 4.907-.876 7.185-2.103l18.928 16.124c-1.753 2.453-2.279 3.505-4.207 8.412-1.576 3.856-8.762 26.113-11.567 35.577 12.97 2.63 20.155 4.557 29.97 8.588 1.226-8.588 1.401-13.144 1.401-28.742 0-4.03-.175-6.31-.7-9.99l30.495 1.051c-.877 4.207-1.052 5.959-1.227 12.794-.701 16.475-1.403 24.361-3.154 36.279 12.092 6.134 12.092 6.134 18.226 9.464 3.154 1.752 3.855 2.102 5.959 2.804l-10.165 32.773c-4.908-4.381-11.743-9.113-21.732-14.721-8.763 20.855-23.31 36.103-45.392 48.195-7.36-9.814-12.97-15.772-21.907-22.783 12.969-6.134 18.928-9.99 25.763-16.475 6.66-6.484 11.04-12.793 15.247-22.258-11.217-5.082-18.403-7.36-30.846-9.989-7.185 21.382-12.969 35.052-18.051 43.29-6.835 11.04-16.124 16.824-26.815 16.824-8.237 0-16.65-3.68-22.784-9.99-7.01-7.185-10.69-17.175-10.69-28.742 0-17.176 8.238-32.072 22.609-41.361 9.288-5.959 19.103-8.588 34.7-9.465 3.155-10.34 5.785-19.278 8.238-29.267-7.712.701-17.35 1.227-29.093 1.752-6.309.175-8.412.35-13.495 1.051zm26.64 53.279c-8.238 1.402-13.145 4.031-17.527 9.64-3.33 3.855-4.907 8.412-4.907 13.32 0 5.432 2.63 9.464 5.959 9.464 4.03 0 8.588-9.114 16.475-32.424z"/>
</svg>
