<svg version="1.2" xmlns="http://www.w3.org/2000/svg" viewBox="0 0 108 108" width="108" height="108">
  <title>ic_launcher_foreground</title>
  <style>
    .s0 { fill: #2e3943 }
    .s1 { fill: #f2faff }
    .s2 { fill: #ff4040 }
    .s3 { fill: #000000 }
  </style>
  <path id="Shape 1" fill-rule="evenodd" class="s0" d="m54 103c-27.1 0-49-21.9-49-49 0-27.1 21.9-49 49-49 27.1 0 49 21.9 49 49 0 27.1-21.9 49-49 49z"/>
  <path fill-rule="evenodd" class="s1" d="m54.1 88.4c-19.5 0-35.3-15.4-35.3-34.5 0-19.1 15.8-34.5 35.3-34.5 19.6 0 35.4 15.4 35.4 34.5 0 19.1-15.8 34.5-35.4 34.5z"/>
  <path class="s2" d="m88.6 39.8c-0.5-10.9-9.2-19.8-20.3-20.3-3.1-2.7-6.6-4.6-10.4-5.2-1.2-0.1-2.5-0.1-3.9-0.1-1.3 0-2.6 0-3.9 0.1-3.9 0.8-7.4 2.5-10.5 5.2-10.9 0.5-19.8 9.2-20.2 20.3-7.5 8.1-7.5 20.5 0 28.5 0.1 4.9 2 9.4 5 12.9q1.9 2.1 4.2 3.7c3.2 2.1 6.9 3.5 11 3.7 2.3 2 4.8 3.5 7.5 4.4 2.3 0.3 4.6 0.6 6.9 0.6 2.4 0 4.7-0.1 6.8-0.6 2.8-0.9 5.4-2.4 7.5-4.4 4.3-0.2 8.3-1.7 11.5-4 0.9-0.8 2-1.7 2.8-2.5l0.3-0.3c3.2-3.5 5.2-8.3 5.5-13.3 7.5-8.2 7.5-20.7 0.2-28.7zm-34.6 46.3c-18.2 0-33.1-14.4-33.1-32.2 0-17.8 14.9-32.2 33.1-32.2 18.3 0 33 14.4 33 32.2 0.2 17.8-14.7 32.2-33 32.2z"/>
  <path class="s3" d="m38.2 41.5h13.5v-4h4.2v4h13.3v4h-5.2c-0.1 3-0.9 7.5-7.3 13.9 0.7 0.9 12.5 8.3 12.8 8.6-0.1 0.3-2.9 2.6-2.9 2.6-2.3-0.6-11.2-6.9-12.9-8.6-0.9 1.1-6.9 5.6-11.9 7.9l-2.8-3c6.6-2.6 11.8-6.7 12.3-7.2-3.1-2.7-6.3-7.6-6.8-9.9h4.6c1 3 4 6.7 5.1 7.5 3.5-3.1 5.8-8 5.8-11.5h-21.6z"/>
  <path class="s3" d="m66.8 71.2l-0.3-0.1c-2.3-0.6-10.1-6.2-12.8-8.3-1.8 1.7-7.3 5.5-11.8 7.5l-0.3 0.2-0.3-0.2c-0.1-0.1-3.1-3.2-3.1-3.2l-0.3-0.8 0.8-0.3c5.5-2.1 10-5.4 11.4-6.6-3.1-2.9-5.9-7.5-6.3-9.8l-0.2-0.9h6l0.2 0.4c0.7 2.5 3 5.6 4.2 6.8 2.8-2.6 4.8-6.6 5.1-9.8h-21.6v-5.4h13.5v-4h5.7v4h13.3v5.4h-5.4c-0.3 3.2-1.3 7.5-6.9 13.2 1.9 1.3 7.9 5.2 10.3 6.7 1.5 0.9 1.8 1.2 2 1.2l0.6 0.5-0.4 0.6c-0.2 0.2-1.3 1.1-3.1 2.6zm-13.2-10.4l0.6 0.6c1.5 1.5 9.7 7.2 12.3 8.3 0.7-0.6 1.4-1.2 1.8-1.7-0.3-0.1-0.6-0.5-1.1-0.8-7.8-4.9-10.7-6.9-11.1-7.5l-0.4-0.4 0.5-0.5c6-6.1 6.9-10.3 7.1-13.5v-0.8h5.2v-2.4h-13.4v-4h-2.6v4h-13.5v2.4h21.7v0.8c0 4-2.7 9.1-6.2 12.1l-0.4 0.6-0.5-0.3c-1.2-0.9-4-4.3-5.1-7.3h-3c0.9 2.3 3.5 6.3 6.1 8.6l0.5 0.4-0.5 0.6c-0.5 0.6-5.2 4.5-11.5 7.1 0.6 0.6 1.2 1.4 1.7 1.8 4.9-2.3 10.4-6.4 11.3-7.3z"/>
</svg>